<?xml version="1.0" encoding="utf-8"?>
<!-- Generator: Adobe Illustrator 27.3.1, SVG Export Plug-In . SVG Version: 6.00 Build 0)  -->
<svg version="1.1" id="Layer_1" xmlns="http://www.w3.org/2000/svg" xmlns:xlink="http://www.w3.org/1999/xlink" x="0px" y="0px"
	 viewBox="0 0 500 500" style="enable-background:new 0 0 500 500;" xml:space="preserve">
<style type="text/css">
	.st0{fill:#05B81C;}
</style>
<image style="display:none;overflow:visible;" width="291" height="259" xlink:href="olimpiada_logo.png"  transform="matrix(1.9003 0 0 1.9305 -36 0)">
</image>
<path class="st0" d="M359.5,325.5L299,265c-8.3-8.3-8.3-21.7,0-29.9L365,169c8.3-8.3,21.7-8.3,29.9,0l60.6,60.6
	c8.3,8.3,8.3,21.7,0,29.9l-66.1,66.1C381.2,333.8,367.8,333.8,359.5,325.5z"/>
<path class="st0" d="M232.9,452.5L172.4,392c-8.3-8.3-8.3-21.7,0-29.9l66.1-66.1c8.3-8.3,21.7-8.3,29.9,0l60.6,60.6
	c8.3,8.3,8.3,21.7,0,29.9l-66.1,66.1C254.6,460.8,241.2,460.8,232.9,452.5z"/>
<path class="st0" d="M107,160c-2.5,1.2-3.1,2.7-7,7c0,0-1.7,1.7-5,5c-12,12-12,12-12,12c-7.2,7.2-7.4,8-16,17
	c-15.9,16.6-23.8,24.8-24,25c-2,1.6-6.1,4.6-8,10c-1.8,5.1-1.2,9.6-1,11c1.2,7.2,5.6,11.4,14,20c10.6,10.9,1.1,1.8,17,18
	c9.4,9.6,14.5,14.8,22,22c6,5.7,11.1,10.5,15,14c0.2-0.1,0.6-0.1,1,0c1.2,0.3,1.8,1.7,2,2c1.2,2.3,10.2,4.3,15,1c1.5-1,3.5-3.2,4-22
	c0.2-7.1,0.1-11.4,0-22c0,0,0-4.1,0-16c0-16.4,0.6-20.7,1.2-44.8c1.2-44.3-0.8-31.3-0.2-36.2c0,0,0.7-6.1-2-17c-0.2-0.9-0.6-2.5-2-4
	c-2.2-2.5-5.5-2.8-7-3C112.8,158.9,109.9,158.6,107,160z"/>
<path class="st0" d="M164,167.2c0.2,9.2,0.4,22.9,0,39.6c-0.3,12.2-0.4,19.8-1,30.7c-1.3,26.5-3.5,46.8,3.9,51.5
	c2.8,1.7,5.9,2,5.9,2c4.7,0.4,8.5-2.1,9.9-3c19.2-12.6,76.9-74.3,76.9-74.3c9.1-9.7,12.6-12.6,41.4-42.6
	c5.2-5.4,12.7-13.3,21.7-24.8c6.5-8.3,11.4-15.5,14.8-20.8c0.5-2.6,0.9-6.9,0-11.9c-1.1-6.1-4.2-12.3-18.7-27.7
	c-5.1-5.4-8.9-9.1-13.8-13.9c-6.6-6.4-13.9-12.8-28.4-25.5c-1.8-1.5-7.2-6.3-15-11.1c-5-3.1-7.9-4.3-10.8-5c0,0-6-1.4-12.8,0
	c-13.7,2.7-28.6,20.8-51.3,45.5c-11,12.1-16.6,17.8-20.1,28.7c-2.8,8.7-2.9,16.5-2.5,21.8"/>
</svg>
