<?xml version="1.0" encoding="utf-8"?>
<!-- Generator: Adobe Illustrator 27.3.1, SVG Export Plug-In . SVG Version: 6.00 Build 0)  -->
<svg version="1.1" id="Layer_1" xmlns="http://www.w3.org/2000/svg" xmlns:xlink="http://www.w3.org/1999/xlink" x="0px" y="0px"
	 viewBox="0 0 1920 1080" style="enable-background:new 0 0 1920 1080;" xml:space="preserve">
<style type="text/css">
	.st0{fill:#F06F3C;stroke:#000000;stroke-width:30;stroke-miterlimit:10;}
	.st1{fill:#CC5E37;}
	.st2{fill:none;stroke:#000000;stroke-width:30;stroke-miterlimit:10;}
	.st3{fill:none;stroke:#000000;stroke-width:37;stroke-miterlimit:10;}
	.st4{fill:none;stroke:#000000;stroke-width:35;stroke-miterlimit:10;}
	.st5{fill:none;stroke:#000000;stroke-width:29;stroke-miterlimit:10;}
</style>
<path class="st0" d="M1373.9,540c0,249.8-202.5,452.3-452.3,452.3S469.3,789.8,469.3,540c0-228.9,183.5-397.8,350.5-440.8
	c48.9-12.6,87.3-12.1,101.8-11.5C1106.7,94.7,1373.9,256.2,1373.9,540z"/>
<path class="st1" d="M1244.1,263.4c-3.3,2.2,1.7,11.1,7.7,38.3c6.8,31.2,8.2,56.1,9.2,75.1c0.4,8.3,1.6,30.6,0,55.1
	c-2.7,41.5-12,71.2-26,114.9c-13.9,43.3-24.1,75.2-46,116.4c-11.4,21.6-30.6,54.3-59.7,90.4c-8.9,11-44.8,54.5-104.2,99.6
	c-25.6,19.4-55.2,41.9-98,61.3c-82.8,37.4-145.4,31.7-145.5,42.9c-0.2,11.7,68.4,24.9,128.7,26c59,1.1,104.3-9.5,125.6-15.3
	c24-6.5,64-19.6,108.8-46c17.4-10.2,55.4-34.2,95-75.1c30.4-31.3,50.6-61.1,62.8-81.2c23.2-38.2,35-70.3,38.3-79.7
	c6.2-17.4,15.8-45.2,19.9-82.7c3.1-28.5,1.5-48.9-1.5-87.3c-2.5-31.7-4.2-53.7-10.7-82.7c-6.4-28.4-14.7-64.4-38.3-102.6
	C1286,291.9,1251.2,258.7,1244.1,263.4z"/>
<path class="st2" d="M1373.9,540c0,249.8-202.5,452.3-452.3,452.3S469.3,789.8,469.3,540c0-228.9,183.5-397.8,350.5-440.8
	c48.9-12.6,87.3-12.1,101.8-11.5C1106.7,94.7,1373.9,256.2,1373.9,540z"/>
<path class="st3" d="M465,551.2c20.2-10.3,45.1-22.7,72.2-35.4c13.9-6.5,28.2-13.1,46.6-20.1c4.1-1.5,11.9-4.4,21-7.5
	c8.3-2.8,14.9-5,20.7-6.8c6.3-2,9.5-2.9,13.6-4c4.7-1.2,5.1-1.1,15.3-3.4c7.9-1.8,11.3-2.7,12.6-3c4.2-1.1,7.3-2,10-2.8
	c3.9-1.2,9-2.8,15-4.8c0,0,17.8-5.6,39.1-10.9c25.3-6.3,45.8-9.1,62.3-11.4c14.8-2,38-5.2,68.2-6.1c0.7,0,9.7-0.1,27.7-0.3
	c32.8-0.4,44.7-0.5,58.3-0.5c26.2-0.1,34.3,0.1,42.8,0.5c11.2,0.5,19.8,1.3,26.7,1.9c5.4,0.5,22,2,47.7,5.4
	c13.2,1.8,31.9,4.4,56.2,8.9c35.9,6.6,63.1,13.6,72.2,16c34,8.9,59.4,17.6,67.7,20.4c16.2,5.6,28.7,10.5,53.6,20.2
	c22.4,8.8,40.8,16.3,53.7,21.6"/>
<path class="st4" d="M1080.8,122.9c-3.6,2.3-9,5.8-15.4,10.3c-6.1,4.3-8.9,6.5-23.5,17.4c-17,12.6-19.2,14.3-23.5,17.9
	c-7.9,6.7-13.6,12.2-17.9,16.3c-7.3,7.1-12.8,13.2-23.5,25c-10.3,11.4-15.5,17.2-18.9,22c-1.9,2.7-2.5,3.8-13.8,23
	c-11.2,19.1-11.8,20.1-13.3,23c-5.7,11-9.3,19.9-11.7,26c-2.5,6.2-5.3,13.2-8.2,22.7c-4.2,13.8-6.3,25-7.1,30.4
	c-1,6.1-0.7,5.7-3.1,26.3c-1.9,16.9-2.2,17-3.3,27.8c-1.7,15.3-2.5,23-2.8,31.7c-0.5,14.5,0.2,25.7,0.8,34
	c0.5,6.6,1.1,15.4,2.8,26.8c0.8,5.4,2.4,13.2,5.6,28.6c2.6,12.7,3.9,19,5.1,24c3.5,14.7,6.8,25.9,7.9,29.6c4.2,13.7,7.3,24.1,13,37
	c6.4,14.5,12.7,24.6,19.1,35c10.2,16.4,19.2,28.1,22.2,31.9c9.9,12.6,18.1,21.2,26.3,29.9c11.9,12.5,21.3,21.2,23.5,23.2
	c9.4,8.7,16.4,14.4,28.9,24.5c12.4,10.1,21.4,17,35.7,28.1c17.9,13.8,26.9,20.7,36.3,27.3c13.1,9.3,13.3,8.7,30.9,20.9
	c3.1,2.2,8.2,5.7,30.6,22c11.5,8.3,21.1,15.3,27.8,20.2"/>
<path class="st2" d="M825.9,101c-10.1,18.2-18.3,32.8-24,42.8c-7.1,12.6-12,21.2-18.9,34.3c-5.1,9.7-8.8,16.7-13.3,26.6
	c-4,8.7-6.7,15.7-12.3,29.6c-4.8,12.2-7.7,19.4-11.2,29.6c-2.8,8.1-2.7,8.5-10.2,32.7c-6.6,21.1-6.8,21.2-9.2,29.6
	c-3,10.4-5.6,19.4-8.2,31.7c-1.8,8.3-2.9,15.8-5.1,30.6c-0.9,6-2.7,18-4.6,33.7c-0.9,7.7-2.3,18.6-3.6,32.2
	c-1.1,11.7-2.8,30.2-3.6,53.6c-0.5,15.2-0.3,25.7,0,46c0.4,26.9,0.6,40.4,1.5,52.1c2.1,26.7,6.2,46.1,12.3,75.1
	c1,4.8,5.6,26.5,13.3,54.6c3,10.9,6.6,24.1,12.3,41.4c1.5,4.7,7.1,21.4,15.8,43.4c5.6,14,11.5,28.9,20.9,48
	c6.1,12.3,11.2,21.4,18.4,34.2c4.4,7.8,10.7,18.8,18.9,32.2c12.5,20.4,17.5,26.6,19.9,29.6c6.7,8.2,12.9,14.3,17.4,18.4"/>
<path class="st5" d="M508.8,353.3c8,6.2,13.9,12,17.9,16.3c4.2,4.5,7.2,8.5,13.3,16.3c3.1,4,6.1,7.9,9.7,13.3
	c3.8,5.6,9,13.3,14.3,24c4,8,6.3,14.3,8.7,20.9c3.6,10,5.8,17.7,7.1,22.5c1.6,5.6,4.2,15.5,6.5,28.2c1.3,6.7,2.7,14.6,3.7,24.4
	c1.3,13.8,0.8,23.9,0,37.8c-1,17.3-2.7,30.1-4.6,43.4c-1.9,13.8-3.2,23-6.1,35.7c-0.7,3-3.2,13.9-7.7,28.1c-1.2,3.9-3.4,11-6.6,19.4
	c-6,15.8-11.8,27.1-18.5,40c-4.4,8.4-10.3,19.2-17.7,31.5"/>
<path class="st1" d="M2016.2,10.6"/>
</svg>
