<?xml version="1.0" encoding="utf-8"?>
<!-- Generator: Adobe Illustrator 27.3.1, SVG Export Plug-In . SVG Version: 6.00 Build 0)  -->
<svg version="1.1" id="Layer_1" xmlns="http://www.w3.org/2000/svg" xmlns:xlink="http://www.w3.org/1999/xlink" x="0px" y="0px"
	 viewBox="0 0 1080 1920" style="enable-background:new 0 0 1080 1920;" xml:space="preserve">
<style type="text/css">
	.st0{fill:#AD273A;}
	.st1{fill:none;stroke:#FFFFFF;stroke-width:12;stroke-miterlimit:10;}
	.st2{fill:none;stroke:#FFFFFF;stroke-width:14;stroke-miterlimit:10;}
	.st3{fill:none;stroke:#FFFFFF;stroke-width:10;stroke-miterlimit:10;}
	.st4{opacity:6.000000e-02;fill:none;stroke:#FFFFFF;stroke-width:10;stroke-miterlimit:10;enable-background:new    ;}
</style>
<image style="overflow:visible;enable-background:new    ;" width="612" height="354" xlink:href="801B14D4.jpg"  transform="matrix(1.408541e-10 -3.1373 3.0508 1.369705e-10 6.521735e-02 1922.3967)">
</image>
<rect x="0.1" y="2.4" class="st0" width="1080" height="1920"/>
<rect x="97.6" y="100.9" class="st1" width="891" height="1705.5"/>
<line class="st2" x1="97.6" y1="953.9" x2="988.6" y2="953.9"/>
<circle class="st2" cx="540.1" cy="957.4" r="110"/>
<rect x="396.1" y="1455.4" class="st2" width="289" height="344"/>
<rect x="396.1" y="107.4" class="st2" width="289" height="343"/>
<path class="st2" d="M932.1,1806.4c0-11.7,0-23.3,0-35c0-9.5,0-18.9,0-28.4c0-11.2,0-22.4,0-33.6c0-44,0-42.4,0-46
	c0,0-0.3-24.4-2-49c-2.2-32.4-32-115.3-96-182c-64.5-67.1-169.7-124.1-291-123c-235,2.2-373,221-385,282c-9.9,50.3-10,91-10,91
	s0,0,0,47c0,10.3,0,20.7,0,31c0,10,0,20,0,30c0,5.3,0,10.7,0,16"/>
<path class="st2" d="M120.1,1778.4"/>
<path class="st2" d="M121.1,1710.4"/>
<path class="st2" d="M124.1,1704"/>
<path class="st2" d="M932.1,107.4c0,11.7,0,23.3,0,35c0,9.5,0,18.9,0,28.4c0,11.2,0,22.4,0,33.6c0,44,0,42.4,0,46c0,0-0.3,24.4-2,49
	c-2.2,32.4-32,115.3-96,182c-64.5,67.1-169.7,124.1-291,123c-235-2.2-373-221-385-282c-9.9-50.3-10-91-10-91s0,0,0-47
	c0-10.3,0-20.7,0-31c0-10,0-20,0-30c0-5.3,0-10.7,0-16"/>
<path class="st3" d="M615.1,1741.4c0-2.4,0-4.8,0-7.2c0-2,0-10.5,0-12.8c0-9.1,0-8.8,0-9.5c0,0-0.1-5.1-0.4-10.2
	c-0.4-6.7-5.9-23.9-17.6-37.7c-11.8-13.9-31.2-25.7-53.5-25.5c-43.2,0.5-68.5,45.8-70.7,58.4c-1.8,10.4-1.8,18.9-1.8,18.9s0,0,0,9.7
	c0,2.1,0,4.3,0,6.4c0,2.1,0,4.1,0,6.2c0,1.1,0,2.2,0,3.3"/>
<path class="st3" d="M611.8,175.5c0,2.4,0,4.8,0,7.2c0,2,0,10.5,0,12.8c0,9.1,0,8.8,0,9.5c0,0-0.1,5.1-0.4,10.2
	c-0.4,6.7-5.9,23.9-17.6,37.7c-11.8,13.9-31.2,25.7-53.5,25.5c-43.2-0.4-68.5-45.8-70.7-58.4c-1.8-10.4-1.8-18.9-1.8-18.9s0,0,0-9.7
	c0-2.1,0-4.3,0-6.4c0-2.1,0-4.1,0-6.2c0-1.1,0-2.2,0-3.3"/>
<path class="st3" d="M430.1,1452.4c0-58,47-105,105-105s105,47,105,105"/>
<path class="st3" d="M434.8,450.3c0,58,47,105,105,105s105-47,105-105"/>
<line class="st3" x1="0.1" y1="1259.4" x2="97.1" y2="1258.4"/>
<line class="st3" x1="0.1" y1="647.4" x2="97.1" y2="646.4"/>
<line class="st4" x1="-356.9" y1="656.4" x2="-350.9" y2="646.4"/>
<image style="overflow:visible;opacity:0.22;enable-background:new    ;" width="955" height="644" xlink:href="801B14D5.jpg"  transform="matrix(3.098314e-11 -0.6901 0.4363 1.958838e-11 799.0652 661.3967)">
</image>
<image style="overflow:visible;opacity:0.22;enable-background:new    ;" width="955" height="644" xlink:href="801B14D3.jpg"  transform="matrix(2.975746e-11 -0.6628 0.6134 2.753957e-11 -6.9348 1921.3967)">
</image>
<image style="overflow:visible;opacity:0.22;enable-background:new    ;" width="955" height="644" xlink:href="801B14DC.jpg"  transform="matrix(3.013459e-11 -0.6712 0.6149 2.760692e-11 6.521738e-02 1288.3967)">
</image>
<image style="overflow:visible;opacity:0.22;enable-background:new    ;" width="955" height="644" xlink:href="801B14DF.jpg"  transform="matrix(3.046234e-11 -0.6785 0.6149 2.760692e-11 6.521741e-02 647.3967)">
</image>
<image style="overflow:visible;opacity:0.22;enable-background:new    ;" width="955" height="644" xlink:href="801B14DD.jpg"  transform="matrix(2.975746e-11 -0.6628 0.6258 2.809629e-11 388.0652 1921.3967)">
</image>
<image style="overflow:visible;opacity:0.22;enable-background:new    ;" width="955" height="644" xlink:href="801B14D2.jpg"  transform="matrix(3.013459e-11 -0.6712 0.6258 2.809629e-11 396.0652 1288.3967)">
</image>
<image style="overflow:visible;opacity:0.22;enable-background:new    ;" width="955" height="644" xlink:href="801B14D6.jpg"  transform="matrix(3.046234e-11 -0.6785 0.6258 2.809629e-11 396.0652 647.3967)">
</image>
<image style="overflow:visible;opacity:0.22;enable-background:new    ;" width="955" height="644" xlink:href="801B14D7.jpg"  transform="matrix(3.112232e-11 -0.6932 0.4441 1.993858e-11 791.0652 1921.3967)">
</image>
<image style="overflow:visible;opacity:0.22;enable-background:new    ;" width="955" height="644" xlink:href="83EA02F3.jpg"  transform="matrix(2.811425e-11 -0.6262 0.4363 1.958838e-11 799.0652 1259.3967)">
</image>
</svg>
