<?xml version="1.0" encoding="utf-8"?>
<!-- Generator: Adobe Illustrator 27.3.1, SVG Export Plug-In . SVG Version: 6.00 Build 0)  -->
<svg version="1.1" id="Layer_1" xmlns="http://www.w3.org/2000/svg" xmlns:xlink="http://www.w3.org/1999/xlink" x="0px" y="0px"
	 viewBox="0 0 1080 1920" style="enable-background:new 0 0 1080 1920;" xml:space="preserve">
<style type="text/css">
	.st0{fill:none;stroke:#FFFFFF;stroke-width:14;stroke-miterlimit:10;}
	.st1{fill:none;stroke:#FFFFFF;stroke-width:10;stroke-miterlimit:10;}
	.st2{opacity:6.000000e-02;fill:none;stroke:#FFFFFF;stroke-width:10;stroke-miterlimit:10;enable-background:new    ;}
	.st3{fill:#6BA13C;}
	.st4{fill:#4B8438;}
	.st5{fill:none;stroke:#FFFFFF;stroke-width:12;stroke-miterlimit:10;}
	.st6{fill:none;}
	.st7{fill:#FFFFFF;stroke:#FFFFFF;stroke-width:10;stroke-miterlimit:10;}
</style>
<line class="st0" x1="97.6" y1="953.9" x2="988.6" y2="953.9"/>
<circle class="st0" cx="540.1" cy="957.4" r="110"/>
<rect x="396.1" y="1455.4" class="st0" width="289" height="344"/>
<path class="st0" d="M932.1,1806.4c0-11.7,0-23.3,0-35c0-9.5,0-18.9,0-28.4c0-11.2,0-22.4,0-33.6c0-44,0-42.4,0-46
	c0,0-0.3-24.4-2-49c-2.2-32.4-32-115.3-96-182c-64.5-67.1-169.7-124.1-291-123c-235,2.2-373,221-385,282c-9.9,50.3-10,91-10,91
	s0,0,0,47c0,10.3,0,20.7,0,31c0,10,0,20,0,30c0,5.3,0,10.7,0,16"/>
<path class="st0" d="M120.1,1778.4"/>
<path class="st0" d="M121.1,1710.4"/>
<path class="st0" d="M124.1,1704"/>
<path class="st1" d="M615.1,1741.4c0-2.4,0-4.8,0-7.2c0-2,0-10.5,0-12.8c0-9.1,0-8.8,0-9.5c0,0-0.1-5.1-0.4-10.2
	c-0.4-6.7-5.9-23.9-17.6-37.7c-11.8-13.9-31.2-25.7-53.5-25.5c-43.2,0.5-68.5,45.8-70.7,58.4c-1.8,10.4-1.8,18.9-1.8,18.9s0,0,0,9.7
	c0,2.1,0,4.3,0,6.4c0,2.1,0,4.1,0,6.2c0,1.1,0,2.2,0,3.3"/>
<path class="st1" d="M430.1,1452.4c0-58,47-105,105-105s105,47,105,105"/>
<line class="st1" x1="0.1" y1="1259.4" x2="97.1" y2="1258.4"/>
<line class="st2" x1="-356.9" y1="656.4" x2="-350.9" y2="646.4"/>
<image style="overflow:visible;opacity:0.22;enable-background:new    ;" width="955" height="644" xlink:href="8F350BF4.jpg"  transform="matrix(3.098314e-11 -0.6901 0.4363 1.958838e-11 799.0652 661.3967)">
</image>
<image style="overflow:visible;opacity:0.22;enable-background:new    ;" width="955" height="644" xlink:href="8F350BF5.jpg"  transform="matrix(2.975746e-11 -0.6628 0.6134 2.753957e-11 -6.9348 1921.3967)">
</image>
<image style="overflow:visible;opacity:0.22;enable-background:new    ;" width="955" height="644" xlink:href="8F350BFA.jpg"  transform="matrix(2.975746e-11 -0.6628 0.6258 2.809629e-11 388.0652 1921.3967)">
</image>
<image style="overflow:visible;opacity:0.22;enable-background:new    ;" width="955" height="644" xlink:href="8F350BFB.jpg"  transform="matrix(3.112232e-11 -0.6932 0.4441 1.993858e-11 791.0652 1921.3967)">
</image>
<image style="overflow:visible;opacity:0.22;enable-background:new    ;" width="955" height="644" xlink:href="8F350BFC.jpg"  transform="matrix(2.811425e-11 -0.6262 0.4363 1.958838e-11 799.0652 1259.3967)">
</image>
<rect x="-0.4" y="0.3" class="st3" width="1080" height="1920"/>
<rect x="-0.4" y="1793.3" class="st4" width="1080" height="125"/>
<rect x="-0.4" y="1538.3" class="st4" width="1080" height="120"/>
<rect x="-0.4" y="1282.3" class="st4" width="1080" height="126"/>
<rect x="-0.4" y="1024.3" class="st4" width="1080" height="124"/>
<rect x="-0.4" y="765.3" class="st4" width="1080" height="129"/>
<rect x="-0.4" y="508.3" class="st4" width="1080" height="129"/>
<rect x="-0.4" y="260.3" class="st4" width="1080" height="125"/>
<rect x="-0.4" y="0.3" class="st4" width="1080" height="122"/>
<rect x="240.6" y="1534.3" class="st5" width="579" height="304"/>
<rect x="240.6" y="79.3" class="st5" width="579" height="304"/>
<rect x="44.6" y="79.3" class="st5" width="989" height="1759"/>
<rect x="368.6" y="81.3" class="st5" width="323" height="89"/>
<rect x="368.6" y="1749.3" class="st5" width="323" height="89"/>
<rect x="539.1" y="463.8" class="st5" width="0" height="989"/>
<ellipse class="st5" cx="539.1" cy="958.8" rx="106.5" ry="130.5"/>
<rect x="489.6" y="1838.3" class="st6" width="83" height="36"/>
<rect x="489.6" y="1838.3" class="st1" width="83" height="36"/>
<rect x="489.6" y="43.3" class="st1" width="83" height="36"/>
<ellipse class="st7" cx="539.1" cy="959.3" rx="11.5" ry="12"/>
<circle class="st7" cx="534.1" cy="1633.8" r="12.5"/>
<circle class="st7" cx="534.1" cy="278.8" r="12.5"/>
<path class="st5" d="M528.1,1481.3c57.3-0.3,104.9,41.4,101.5,51c-0.5,1.3-1.9,2-62,2c-2,0-17.3,0-41,0c0,0-23.6,0-24,0
	c-16.7,0-33.3,0-50,0c-5,0-10,0-15,0c-4.7,0-7,0-7,0l0,0c-8.9,0.2-9,0-9,0C420,1531.2,466,1481.7,528.1,1481.3z"/>
<path class="st5" d="M533.2,436.3c57.3,0.3,104.9-41.4,101.5-51c-0.5-1.3-1.9-2-62-2c-2,0-17.3,0-41,0c0,0-23.6,0-24,0
	c-16.7,0-33.3,0-50,0c-5,0-10,0-15,0c-4.7,0-7,0-7,0c-8.9-0.2-9,0-9,0C425.1,386.4,471.1,435.9,533.2,436.3z"/>
<path class="st5" d="M569.6,1353.3"/>
<path class="st1" d="M1020.6,79.3c5.3,0,8,0,8,0c3.3-0.3,4.2-0.7,5,0c1.4,1.2,0.4,3.7,0,9c0,0,0,3.3,0,10c0,3.7,0,7.3,0,11
	c0,2.7,0,5.3,0,8c0,2.3-0.1,4.7,0,7c0.2,4.5,0.7,5.3,0,6c-0.3,0.3-1.6,1.4-11-2c-5.6-2-8.9-3.2-13-6c-3.1-2.1-4.9-3.9-8-7
	c-3.8-3.8-6.8-6.8-9-11.6c-0.8-1.7-0.2-0.8-2-5.4c0,0-5-13-5-16c0-0.2,0-0.9,0-2c0-0.9,0-0.9,0-1c0.4-1,3.8-0.1,9,0c0,0,2,0,6,0
	c1,0,2,0,3,0c2.7,0,5.3,0,8,0C1014.6,79.3,1017.6,79.3,1020.6,79.3z"/>
<path class="st1" d="M1019.6,1838.3c5.3,0,8,0,8,0c3.3,0.3,4.2,0.7,5,0c1.4-1.2,0.4-3.7,0-9c0,0,0-3.3,0-10c0-3.7,0-7.3,0-11
	c0-2.7,0-5.3,0-8c0-2.3-0.1-4.7,0-7c0.2-4.5,0.7-5.3,0-6c-0.3-0.4-1.6-1.4-11,2c-5.6,2-8.9,3.2-13,6c-3.1,2.1-4.9,3.9-8,7
	c-3.8,3.8-6.8,6.8-9,11.6c-0.8,1.7-0.2,0.8-2,5.4c0,0-5,13-5,16c0,0.2,0,0.9,0,2c0,0.9,0,0.9,0,1c0.4,1,3.8,0.1,9,0c0,0,2,0,6,0
	c1,0,2,0,3,0c2.7,0,5.3,0,8,0C1013.6,1838.3,1016.6,1838.3,1019.6,1838.3z"/>
<path class="st1" d="M58.6,78.3c-5.3,0-8,0-8,0c-3.3-0.3-4.2-0.7-5,0c-1.4,1.2-0.4,3.7,0,9c0,0,0,3.3,0,10c0,3.7,0,7.3,0,11
	c0,2.7,0,5.3,0,8c0,2.3,0.1,4.7,0,7c-0.2,4.5-0.7,5.3,0,6c0.3,0.3,1.6,1.4,11-2c5.6-2,8.9-3.2,13-6c3.1-2.1,4.9-3.9,8-7
	c3.8-3.8,6.8-6.8,9-11.6c0.8-1.7,0.2-0.8,2-5.4c0,0,5-13,5-16c0-0.2,0-0.9,0-2c0-0.9,0-0.9,0-1c-0.4-1-3.8-0.1-9,0c0,0-2,0-6,0
	c-1,0-2,0-3,0c-2.7,0-5.3,0-8,0C64.6,78.3,61.6,78.3,58.6,78.3z"/>
<path class="st1" d="M58.6,1837.3c-5.3,0-8,0-8,0c-3.3,0.3-4.2,0.7-5,0c-1.4-1.2-0.4-3.7,0-9c0,0,0-3.3,0-10c0-3.7,0-7.3,0-11
	c0-2.7,0-5.3,0-8c0-2.3,0.1-4.7,0-7c-0.2-4.5-0.7-5.3,0-6c0.3-0.4,1.6-1.4,11,2c5.6,2,8.9,3.2,13,6c3.1,2.1,4.9,3.9,8,7
	c3.8,3.8,6.8,6.8,9,11.6c0.8,1.7,0.2,0.8,2,5.4c0,0,5,13,5,16c0,0.2,0,0.9,0,2c0,0.9,0,0.9,0,1c-0.4,1-3.8,0.1-9,0c0,0-2,0-6,0
	c-1,0-2,0-3,0c-2.7,0-5.3,0-8,0C64.6,1837.3,61.6,1837.3,58.6,1837.3z"/>
</svg>
