<?xml version="1.0" encoding="utf-8"?>
<!-- Generator: Adobe Illustrator 27.3.1, SVG Export Plug-In . SVG Version: 6.00 Build 0)  -->
<svg version="1.1" id="Layer_1" xmlns="http://www.w3.org/2000/svg" xmlns:xlink="http://www.w3.org/1999/xlink" x="0px" y="0px"
	 viewBox="0 0 1080 1920" style="enable-background:new 0 0 1080 1920;" xml:space="preserve">
<style type="text/css">
	.st0{fill:#97AD68;}
	.st1{fill:none;stroke:#FFFFFF;stroke-width:12;stroke-miterlimit:10;}
	.st2{fill:none;stroke:#4D4D4D;stroke-width:7;stroke-miterlimit:10;}
	.st3{fill:none;stroke:#4D4D4D;stroke-width:3;stroke-miterlimit:10;}
	.st4{fill:none;stroke:#4D4D4D;stroke-width:4;stroke-miterlimit:10;}
</style>
<image style="overflow:visible;enable-background:new    ;" width="1040" height="585" xlink:href="8E10EE93.jpg"  transform="matrix(8.288732e-11 -1.8462 1.7226 7.733914e-11 35.7082 1919.7759)">
</image>
<rect x="-0.4" y="-0.2" class="st0" width="1080" height="1920"/>
<rect x="228.6" y="253.8" class="st1" width="623" height="1451"/>
<rect x="304.6" y="253.8" class="st1" width="468" height="1451"/>
<rect x="304.6" y="579.8" class="st1" width="468" height="786"/>
<line class="st1" x1="538.6" y1="1365.8" x2="539.6" y2="579.8"/>
<line class="st2" x1="118.6" y1="959.8" x2="978.6" y2="959.8"/>
<line class="st2" x1="75.6" y1="1033.8" x2="940.1" y2="1034.3"/>
<line class="st2" x1="118.6" y1="959.8" x2="75.6" y2="1033.8"/>
<line class="st2" x1="983.4" y1="960.2" x2="940.4" y2="1034.2"/>
<image style="overflow:visible;opacity:0.37;enable-background:new    ;" width="612" height="407" xlink:href="8E10EE91.jpg"  transform="matrix(4.372479e-11 -0.9739 0.8943 4.015102e-11 -0.4419 1919.7759)">
</image>
<image style="overflow:visible;opacity:0.37;enable-background:new    ;" width="612" height="407" xlink:href="8E10EE97.jpg"  transform="matrix(4.981277e-11 -1.1095 0.8943 4.015102e-11 -0.4419 1323.7759)">
</image>
<image style="overflow:visible;opacity:0.37;enable-background:new    ;" width="612" height="407" xlink:href="8E10EE90.jpg"  transform="matrix(4.731652e-11 -1.0539 0.8943 4.015102e-11 -0.4419 644.7759)">
</image>
<image style="overflow:visible;opacity:0.37;enable-background:new    ;" width="612" height="407" xlink:href="8E10EE9E.jpg"  transform="matrix(4.981277e-11 -1.1095 0.8943 4.015102e-11 363.5581 1340.7759)">
</image>
<image style="overflow:visible;opacity:0.37;enable-background:new    ;" width="612" height="407" xlink:href="8E10EE9F.jpg"  transform="matrix(4.254850e-11 -0.9477 0.8943 4.015102e-11 363.5581 1920.7759)">
</image>
<image style="overflow:visible;opacity:0.37;enable-background:new    ;" width="612" height="407" xlink:href="8E10EE92.jpg"  transform="matrix(4.856464e-11 -1.0817 0.8943 4.015102e-11 363.5581 661.7759)">
</image>
<image style="overflow:visible;opacity:0.37;enable-background:new    ;" width="612" height="407" xlink:href="8E10EE95.jpg"  transform="matrix(4.981277e-11 -1.1095 0.8649 3.883106e-11 727.558 1352.7759)">
</image>
<image style="overflow:visible;opacity:0.37;enable-background:new    ;" width="612" height="407" xlink:href="8E10EE96.jpg"  transform="matrix(4.159669e-11 -0.9265 0.8649 3.883106e-11 727.558 1919.7759)">
</image>
<image style="overflow:visible;opacity:0.37;enable-background:new    ;" width="612" height="407" xlink:href="88727B40.jpg"  transform="matrix(4.944462e-11 -1.1013 0.8649 3.883106e-11 727.558 673.7759)">
</image>
<line class="st3" x1="87.1" y1="1013.3" x2="952.1" y2="1013.3"/>
<line class="st3" x1="564.2" y1="973.3" x2="978.6" y2="973.3"/>
<line class="st3" x1="113.6" y1="973.3" x2="564.2" y2="973.3"/>
<line class="st3" x1="97.6" y1="997.3" x2="962.6" y2="997.3"/>
<line class="st3" x1="83.8" y1="1023.8" x2="948.8" y2="1023.8"/>
<line class="st3" x1="561" y1="983.8" x2="975.3" y2="983.8"/>
<line class="st3" x1="110.3" y1="983.8" x2="561" y2="983.8"/>
<line class="st3" x1="94.3" y1="1007.8" x2="959.3" y2="1007.8"/>
<g>
	<g>
		<line class="st4" x1="125.5" y1="959.3" x2="82.5" y2="1033.3"/>
		<line class="st4" x1="139.5" y1="959.3" x2="96.5" y2="1033.3"/>
		<line class="st4" x1="155.5" y1="959.3" x2="112.5" y2="1033.3"/>
		<line class="st4" x1="170.5" y1="959.3" x2="127.5" y2="1033.3"/>
		<line class="st4" x1="182.5" y1="959.3" x2="139.5" y2="1033.3"/>
		<line class="st4" x1="195.5" y1="959.3" x2="152.5" y2="1033.3"/>
		<line class="st4" x1="210.5" y1="959.3" x2="167.5" y2="1033.3"/>
	</g>
	<g>
		<line class="st4" x1="223" y1="959.3" x2="180" y2="1033.3"/>
		<line class="st4" x1="237" y1="959.3" x2="194" y2="1033.3"/>
		<line class="st4" x1="253" y1="959.3" x2="210" y2="1033.3"/>
		<line class="st4" x1="268" y1="959.3" x2="225" y2="1033.3"/>
		<line class="st4" x1="280" y1="959.3" x2="237" y2="1033.3"/>
		<line class="st4" x1="293" y1="959.3" x2="250" y2="1033.3"/>
		<line class="st4" x1="308" y1="959.3" x2="265" y2="1033.3"/>
	</g>
	<g>
		<line class="st4" x1="319" y1="959.3" x2="276" y2="1033.3"/>
		<line class="st4" x1="333" y1="959.3" x2="290" y2="1033.3"/>
		<line class="st4" x1="349" y1="959.3" x2="306" y2="1033.3"/>
		<line class="st4" x1="364" y1="959.3" x2="321" y2="1033.3"/>
		<line class="st4" x1="376" y1="959.3" x2="333" y2="1033.3"/>
		<line class="st4" x1="389" y1="959.3" x2="346" y2="1033.3"/>
		<line class="st4" x1="404" y1="959.3" x2="361" y2="1033.3"/>
	</g>
	<g>
		<line class="st4" x1="416" y1="959.3" x2="373" y2="1033.3"/>
		<line class="st4" x1="430" y1="959.3" x2="387" y2="1033.3"/>
		<line class="st4" x1="446" y1="959.3" x2="403" y2="1033.3"/>
		<line class="st4" x1="461" y1="959.3" x2="418" y2="1033.3"/>
		<line class="st4" x1="473" y1="959.3" x2="430" y2="1033.3"/>
		<line class="st4" x1="486" y1="959.3" x2="443" y2="1033.3"/>
		<line class="st4" x1="501" y1="959.3" x2="458" y2="1033.3"/>
	</g>
</g>
<g>
	<g>
		<line class="st4" x1="513.8" y1="959.3" x2="470.8" y2="1033.3"/>
		<line class="st4" x1="527.8" y1="959.3" x2="484.8" y2="1033.3"/>
		<line class="st4" x1="543.8" y1="959.3" x2="500.8" y2="1033.3"/>
		<line class="st4" x1="558.8" y1="959.3" x2="515.8" y2="1033.3"/>
		<line class="st4" x1="570.8" y1="959.3" x2="527.8" y2="1033.3"/>
		<line class="st4" x1="583.8" y1="959.3" x2="540.8" y2="1033.3"/>
		<line class="st4" x1="598.8" y1="959.3" x2="555.8" y2="1033.3"/>
	</g>
	<g>
		<line class="st4" x1="611.3" y1="959.3" x2="568.3" y2="1033.3"/>
		<line class="st4" x1="625.3" y1="959.3" x2="582.3" y2="1033.3"/>
		<line class="st4" x1="641.3" y1="959.3" x2="598.3" y2="1033.3"/>
		<line class="st4" x1="656.3" y1="959.3" x2="613.3" y2="1033.3"/>
		<line class="st4" x1="668.3" y1="959.3" x2="625.3" y2="1033.3"/>
		<line class="st4" x1="681.3" y1="959.3" x2="638.3" y2="1033.3"/>
		<line class="st4" x1="696.3" y1="959.3" x2="653.3" y2="1033.3"/>
	</g>
	<g>
		<line class="st4" x1="707.3" y1="959.3" x2="664.3" y2="1033.3"/>
		<line class="st4" x1="721.3" y1="959.3" x2="678.3" y2="1033.3"/>
		<line class="st4" x1="737.3" y1="959.3" x2="694.3" y2="1033.3"/>
		<line class="st4" x1="752.3" y1="959.3" x2="709.3" y2="1033.3"/>
		<line class="st4" x1="764.3" y1="959.3" x2="721.3" y2="1033.3"/>
		<line class="st4" x1="777.3" y1="959.3" x2="734.3" y2="1033.3"/>
		<line class="st4" x1="792.3" y1="959.3" x2="749.3" y2="1033.3"/>
	</g>
	<g>
		<line class="st4" x1="804.3" y1="959.3" x2="761.3" y2="1033.3"/>
		<line class="st4" x1="818.3" y1="959.3" x2="775.3" y2="1033.3"/>
		<line class="st4" x1="834.3" y1="959.3" x2="791.3" y2="1033.3"/>
		<line class="st4" x1="849.3" y1="959.3" x2="806.3" y2="1033.3"/>
		<line class="st4" x1="861.3" y1="959.3" x2="818.3" y2="1033.3"/>
		<line class="st4" x1="874.3" y1="959.3" x2="831.3" y2="1033.3"/>
		<line class="st4" x1="889.3" y1="959.3" x2="846.3" y2="1033.3"/>
	</g>
</g>
<g>
	<line class="st4" x1="895" y1="959.3" x2="852" y2="1033.3"/>
	<line class="st4" x1="909" y1="959.3" x2="866" y2="1033.3"/>
	<line class="st4" x1="925" y1="959.3" x2="882" y2="1033.3"/>
	<line class="st4" x1="940" y1="959.3" x2="897" y2="1033.3"/>
	<line class="st4" x1="952" y1="959.3" x2="909" y2="1033.3"/>
	<line class="st4" x1="965" y1="959.3" x2="922" y2="1033.3"/>
	<line class="st4" x1="980" y1="959.3" x2="937" y2="1033.3"/>
</g>
</svg>
