<?xml version="1.0" encoding="utf-8"?>
<!-- Generator: Adobe Illustrator 27.3.1, SVG Export Plug-In . SVG Version: 6.00 Build 0)  -->
<svg version="1.1" id="Layer_1" xmlns="http://www.w3.org/2000/svg" xmlns:xlink="http://www.w3.org/1999/xlink" x="0px" y="0px"
	 viewBox="0 0 1920 1080" style="enable-background:new 0 0 1920 1080;" xml:space="preserve">
<style type="text/css">
	.st0{fill:#8D8D8D;}
	.st1{fill:#D1D1D1;stroke:#000000;stroke-width:37;stroke-miterlimit:10;}
	.st2{fill:#70B3FC;stroke:#000000;stroke-width:37;stroke-linecap:round;stroke-miterlimit:10;}
	.st3{fill:none;stroke:#000000;stroke-width:37;stroke-miterlimit:10;}
	.st4{fill:none;stroke:#000000;stroke-width:37;stroke-linecap:round;stroke-miterlimit:10;}
	.st5{fill:#FFFFFF;stroke:#000000;stroke-width:37;stroke-miterlimit:10;}
	.st6{fill:#FFFFFF;}
	.st7{fill:#939393;}
	.st8{fill:#6D6D6D;}
</style>
<polygon class="st0" points="1505.4,765.1 1555,601.3 1855.9,697.5 1806.3,861.3 "/>
<path class="st1" d="M1506.8,573.9c-2-3.7-7-3.5-19.8-4.7c-26-2.4-23.9-4.9-46.9-6.1c-16.1-0.8-24.1-1.2-27.8,0.2
	c-15.9,6.2-19,24.9-31.6,57.7c-15.4,40-23,60-36.7,82.1c-4,6.4-18.1,28.7-26.5,59.4c-1.4,5.2-4.7,13.6-0.9,20.1
	c3.2,5.4,8.5,5.1,26.3,10.8c16.7,5.3,18,7.6,29,9.5c10.9,1.9,16.6,2.9,22.4,0.1c11-5.4,8.3-17.9,16.5-26.4c10-10.4,27.6-6,80.5,6.3
	c21.5,5,43,9.9,64.4,14.9c61.8,14.4,60.9,14.1,69.3,16.2c32.9,8.1,33.7,8.8,45.9,11c17.4,3.1,22.2,2.9,32.7,7
	c8.9,3.5,10.3,5.5,33.3,19.4c24.7,14.9,28.7,15.9,33.2,15.8c14.2-0.4,24.7-11.3,29.6-16.4c6.7-7,7.9-11.4,20.7-39.2
	c6.2-13.6,11.5-25.1,18.2-38.4c6.6-13,14.3-27.3,19.2-36.5c1.2-2.2,8.4-15.5,15.6-33.7c5.5-13.7,6.2-18.1,4.3-21.8
	c-1.2-2.5-5-7.4-25.5-8.8c-24.2-1.6-29,4.6-51.1,4.3c-7.9-0.1-18.4-2-39.4-5.8c-4-0.8-5.9-1.2-31.9-6.5c-32.7-6.7-34-7-36.6-7.6
	c-10.2-2.4-11.7-3-43.3-12.1c-42.2-12.1-39-10.7-54.5-15.5c-19.8-6.2-21.9-7.5-32.3-9.7c-12.9-2.7-18.9-2.6-34.9-6.2
	c-26.3-5.8-28.5-10.1-29.1-11.8C1495.6,591.9,1510.8,581.4,1506.8,573.9z"/>
<path class="st2" d="M736.3,35c-27.8-5-59.4-8.4-94.2-8.1c-37.7,0.3-66.1,4.9-90.2,8.8c-26.9,4.4-55.7,9.1-92.2,21.7
	c-33.1,11.4-56.1,23.6-79.6,36.1c-21.5,11.4-55,29.4-95,59.8c-25.1,19.1-58.8,47.7-93.7,87.3c-35.8,40.6-58.6,76.7-69.1,94.3
	c-11.5,19.1-27.8,46.7-43,86.3C75.2,432,62,467.5,53.1,516.6c-5.1,28-10.7,59-8.7,100.5c1.1,22.1,2.9,53.8,16.9,91.8
	c12.5,34.2,29,57.3,38.8,70.9c17.9,24.8,34.7,40.7,53.7,58.7c15,14.2,29,27.4,50.1,42c22,15.1,39.4,23.3,66.3,35.9
	c28,13.1,47,21.9,74,29.8c22.1,6.4,42,9.3,81.7,15c27.4,4,45,6.5,69.8,8c22.9,1.4,49.3,3,82.5-0.7c20.1-2.2,37.8-6.7,73.2-15.6
	c37.9-9.5,63-15.6,97-27.8c9.1-3.3,33.6-12.2,64.4-26.4c15.1-7,35.8-16.6,60.7-31.1c34.9-20.4,34.3-25.2,70.7-47.1
	c24.9-15.1,44.7-26.9,73.2-37.5c18.5-6.9,33.6-10.4,63.8-17.4c29.7-6.9,48.1-11.2,74-13.9c13.8-1.4,40.8-4.1,75.7-1.6
	c51.9,3.8,57.7,14.7,75.7,7.1c15-6.3,19.5-17.5,50.4-86c31.3-69.4,38.7-84.6,30.7-97.5c-7.4-11.9-18.7-6.9-56.1-19.3
	c-40.5-13.5-68.7-33.1-83.4-43.5c-13.1-9.3-34.1-24.3-55.7-49.7c-25.1-29.4-37.8-57.2-49.8-84.1c-15.4-34.5-12.2-38.1-32-85.5
	c-13.4-32.1-20.1-48.1-31.9-66.7c-19.5-30.8-40.2-50.5-61.7-70.8c-16.2-15.5-29.4-27.9-50.2-41.3c-16.8-10.8-31.6-17.6-56.1-29
	C892.1,75.1,877,69,867,65c-18.4-7.4-34.3-13.3-46.8-17.6"/>
<path class="st3" d="M-947.8,920.9"/>
<polyline class="st4" points="1247.7,640 1165.3,581.7 1130,561.5 "/>
<path class="st4" d="M1123.4,563.5c-16.3,35-32.5,70-48.8,105"/>
<line class="st4" x1="1084.4" y1="666.9" x2="1247.7" y2="641.8"/>
<path class="st5" d="M564.4,131.3c-26.3,4.4-30.9,4.8-42.2,7.8c-6.9,1.8-18,5.8-39.8,13.6c-23.7,8.5-35.7,12.8-42.5,15.9
	c-9.6,4.4-10,5.2-35.5,18.5c-20.2,10.6-22.7,11.5-29.8,15.3c-10.9,5.9-20,11.8-54.6,38.7c-32.6,25.3-48.9,37.9-57.9,47.1
	c-14.9,15.1-24,27.3-37.5,45.4c-7.9,10.6-25.7,35-45.2,69c-12.7,22.1-20.9,36.6-29,58.5c-6.1,16.4-9.7,30.7-12,41.1
	c-2.7,12.4-7.1,33.3-6.9,60.3c0.2,24.7,4.2,42.8,8.4,61.2c4.4,19,10.5,45.1,26.3,76.1c7.5,14.7,19.6,37.9,42.5,61.3
	c12,12.3,25.9,21.7,53.5,40.3c28.5,19.3,46.9,31.5,74,43c8.3,3.5,26.3,9.7,45.9,15.8c4.4,1.4,9.5,3,16.3,4.9
	c7.9,2.3,25.4,7.2,46.6,11c11.6,2.1,30.9,5.4,56.1,6.2c25.4,0.8,43.5-1.4,74-5.1c5.9-0.8,32.6-4.1,68.9-11.3
	c31.3-6.2,48.6-9.7,72.4-17.4c29.5-9.5,51-19.9,63.9-26.1c17.9-8.7,32.3-15.7,50.2-27.9c15.7-10.8,26.1-20.3,46.9-39.3
	c21.8-20,37.3-36.1,50.3-49.8c20.6-21.5,30.9-32.3,40.1-44.5c5-6.6,21.3-28.7,36.7-60.3c5.5-11.2,9.6-21.4,17.9-41.9
	c7.1-17.7,10.7-26.6,12.8-35c1-4.3,3.2-13.9,4.3-48.1c0.8-25.2,1.3-37.8,0.1-52.5c-1.2-14.4-2.6-32.1-9.3-54.2
	c-1.7-5.8-8-26-22-49.9c-3.1-5.2-9.5-15.8-35.7-47.3c-25.2-30.2-37.7-45.3-51-56.9c-23-20.1-43.6-31.4-57-38.6
	c-22.1-11.9-39.4-17.8-74-29.8c-11.1-3.9-33-11.1-57.9-15.5c-3.6-0.6-7-1.1-7.6-1.2c-9.1-1.3-21.7-2.4-46.8-4.4
	c-32.2-2.6-48.5-4.1-57-3.6C611,122.3,614.8,122.8,564.4,131.3z"/>
<path class="st5" d="M553.9,879.5C658.8,647.8,763.6,416,868.5,184.3"/>
<path class="st5" d="M409.3,855c108.3-237.8,216.6-475.5,324.8-713.3"/>
<path class="st6" d="M270.7,790.5"/>
<path class="st6" d="M564.8,141"/>
<path class="st5" d="M280.1,796.7c98-218.7,196.1-437.4,294.1-656.1"/>
<path class="st5" d="M172.8,702.5c71-168.8,142-337.7,213-506.5"/>
<path class="st5" d="M716.4,848.4c90.2-191.5,180.5-383,270.7-574.5"/>
<path class="st5" d="M808.5,804.6C585.3,731.4,362,658.1,138.8,584.9"/>
<path class="st5" d="M1031.4,432.3c-222.8-74.9-445.5-149.8-668.2-224.7"/>
<path class="st5" d="M929.9,715.1c-264.4-87.5-528.7-174.9-793.1-262.4"/>
<path class="st5" d="M994.6,572.5c-250.3-80.8-500.7-161.7-751.1-242.6"/>
<path class="st5" d="M1485.4,773.5c18.4-49.3,36.8-98.5,55.2-147.7"/>
<path class="st5" d="M1596.5,804.9c18.4-49.3,36.8-98.5,55.2-147.7"/>
<path class="st5" d="M1697.9,826.7c18.4-49.3,36.8-98.5,55.2-147.7"/>
<path class="st7" d="M1564.5,776.2c-3.7-1-7.3-2.1-11-3.1c14-39.6,28-79.3,42-119c4.7,1.2,9.3,2.3,14,3.5c5.4,1.4,10.9,2.7,16.3,4.1
	l-44.2,119.4C1575.8,779.5,1570.1,777.9,1564.5,776.2z"/>
<path class="st7" d="M1666.3,800c-3.9-0.9-7.7-1.8-11.4-2.8c13.5-38.6,27-77.2,40.5-115.8c5,1,10,2.1,15,3.1s9.9,2.1,14.8,3.1
	c-14.3,38.4-28.7,76.9-43,115.3C1677.2,802.2,1671.9,801.2,1666.3,800z"/>
<path class="st8" d="M1571.7,801.1"/>
<path class="st7" d="M1770.3,843.3c-1.2-0.1-2.1-0.6-4-1.6c-2.3-1.3-5.5-3.1-9.2-5.7c19.7-45.4,39.5-90.8,59.3-136.2
	c4.7-1.3,10.4-2.5,16.8-3.2c6.8-0.7,12.8-0.7,17.9-0.4c-1.6,3.9-4,9.7-7.1,16.6c-12.4,27.7-16.7,30.2-26.9,51.6
	c-7,14.9-23,51.6-28,61.5c-0.8,1.4-2.3,4.5-5.1,7.9c-2.1,2.6-4,4.4-5.3,5.5C1777.3,840.8,1774.2,843.7,1770.3,843.3z"/>
<path class="st7" d="M2437.3,603.4"/>
<path class="st6" d="M1176.1,629.3c-5,0.5-8.5,1-13.7,1.8c-2.1,0.3-1.5,0.2-17,2.8c-6.1,1-6.9,1.1-8.1,1.3c-7,1-7.4,0.8-11.1,1.6
	c-1.6,0.4-3.1,0.7-5.5,1c-2.2,0.3-2.3,0.1-3.8,0.4s-2.4,0.7-2.8,0.3c-0.1-0.2-0.2-0.5,0.4-2.2c0.7-2,1.3-3,1.3-3
	c0.7-1.1-0.1,0,3-6.3c2-3.8,2-3.8,3.2-6.2c0.6-1.3,1.1-2.3,2.5-5.5c1.6-3.5,2.8-6.2,4.3-9.6c1.4-3.2,3.2-6.3,4.5-9.6
	c0.9-2.4,1.2-3.4,2.3-3.9c1.7-0.8,3.5,0.9,8,3.7c5,3.1,4.9,2.3,9.4,5.2c3.2,2,4.5,3.2,8.4,6.2c7.8,6,15.6,11.2,16.6,11.9
	c7.5,5.1,10.6,6.5,10.2,7.9C1187.9,628.4,1184.9,628.3,1176.1,629.3z"/>
</svg>
