<?xml version="1.0" encoding="utf-8"?>
<!-- Generator: Adobe Illustrator 27.3.1, SVG Export Plug-In . SVG Version: 6.00 Build 0)  -->
<svg version="1.1" id="Layer_1" xmlns="http://www.w3.org/2000/svg" xmlns:xlink="http://www.w3.org/1999/xlink" x="0px" y="0px"
	 viewBox="0 0 1920 1080" style="enable-background:new 0 0 1920 1080;" xml:space="preserve">
<style type="text/css">
	.st0{fill:#97AD68;}
	.st1{fill:none;stroke:#FFFFFF;stroke-width:12;stroke-miterlimit:10;}
	.st2{fill:none;stroke:#4D4D4D;stroke-width:7;stroke-miterlimit:10;}
	.st3{fill:none;stroke:#4D4D4D;stroke-width:3;stroke-miterlimit:10;}
	.st4{fill:none;stroke:#4D4D4D;stroke-width:4;stroke-miterlimit:10;}
</style>
<rect x="0" y="-0.3" class="st0" width="1920" height="1080"/>
<rect x="254" y="227.7" class="st1" width="1451" height="623"/>
<rect x="254" y="306.7" class="st1" width="1451" height="468"/>
<rect x="580" y="306.7" class="st1" width="786" height="468"/>
<line class="st1" x1="1366" y1="540.7" x2="580" y2="539.7"/>
<line class="st2" x1="960" y1="960.7" x2="960" y2="100.7"/>
<line class="st2" x1="1034" y1="1003.7" x2="1034.5" y2="139.2"/>
<line class="st2" x1="960" y1="960.7" x2="1034" y2="1003.7"/>
<line class="st2" x1="960.4" y1="95.9" x2="1034.4" y2="138.9"/>
<line class="st3" x1="1013.5" y1="992.2" x2="1013.5" y2="127.2"/>
<line class="st3" x1="973.5" y1="515.1" x2="973.5" y2="100.7"/>
<line class="st3" x1="973.5" y1="965.7" x2="973.5" y2="515.1"/>
<line class="st3" x1="997.5" y1="981.7" x2="997.5" y2="116.7"/>
<line class="st3" x1="1024" y1="995.5" x2="1024" y2="130.5"/>
<line class="st3" x1="984" y1="518.3" x2="984" y2="104"/>
<line class="st3" x1="984" y1="969" x2="984" y2="518.3"/>
<line class="st3" x1="1008" y1="985" x2="1008" y2="120"/>
<g>
	<g>
		<line class="st4" x1="959.5" y1="953.8" x2="1033.5" y2="996.8"/>
		<line class="st4" x1="959.5" y1="939.8" x2="1033.5" y2="982.8"/>
		<line class="st4" x1="959.5" y1="923.8" x2="1033.5" y2="966.8"/>
		<line class="st4" x1="959.5" y1="908.8" x2="1033.5" y2="951.8"/>
		<line class="st4" x1="959.5" y1="896.8" x2="1033.5" y2="939.8"/>
		<line class="st4" x1="959.5" y1="883.8" x2="1033.5" y2="926.8"/>
		<line class="st4" x1="959.5" y1="868.8" x2="1033.5" y2="911.8"/>
	</g>
	<g>
		<line class="st4" x1="959.5" y1="856.3" x2="1033.5" y2="899.3"/>
		<line class="st4" x1="959.5" y1="842.3" x2="1033.5" y2="885.3"/>
		<line class="st4" x1="959.5" y1="826.3" x2="1033.5" y2="869.3"/>
		<line class="st4" x1="959.5" y1="811.3" x2="1033.5" y2="854.3"/>
		<line class="st4" x1="959.5" y1="799.3" x2="1033.5" y2="842.3"/>
		<line class="st4" x1="959.5" y1="786.3" x2="1033.5" y2="829.3"/>
		<line class="st4" x1="959.5" y1="771.3" x2="1033.5" y2="814.3"/>
	</g>
	<g>
		<line class="st4" x1="959.5" y1="760.3" x2="1033.5" y2="803.3"/>
		<line class="st4" x1="959.5" y1="746.3" x2="1033.5" y2="789.3"/>
		<line class="st4" x1="959.5" y1="730.3" x2="1033.5" y2="773.3"/>
		<line class="st4" x1="959.5" y1="715.3" x2="1033.5" y2="758.3"/>
		<line class="st4" x1="959.5" y1="703.3" x2="1033.5" y2="746.3"/>
		<line class="st4" x1="959.5" y1="690.3" x2="1033.5" y2="733.3"/>
		<line class="st4" x1="959.5" y1="675.3" x2="1033.5" y2="718.3"/>
	</g>
	<g>
		<line class="st4" x1="959.5" y1="663.3" x2="1033.5" y2="706.3"/>
		<line class="st4" x1="959.5" y1="649.3" x2="1033.5" y2="692.3"/>
		<line class="st4" x1="959.5" y1="633.3" x2="1033.5" y2="676.3"/>
		<line class="st4" x1="959.5" y1="618.3" x2="1033.5" y2="661.3"/>
		<line class="st4" x1="959.5" y1="606.3" x2="1033.5" y2="649.3"/>
		<line class="st4" x1="959.5" y1="593.3" x2="1033.5" y2="636.3"/>
		<line class="st4" x1="959.5" y1="578.3" x2="1033.5" y2="621.3"/>
	</g>
</g>
<g>
	<g>
		<line class="st4" x1="959.5" y1="565.5" x2="1033.5" y2="608.5"/>
		<line class="st4" x1="959.5" y1="551.5" x2="1033.5" y2="594.5"/>
		<line class="st4" x1="959.5" y1="535.5" x2="1033.5" y2="578.5"/>
		<line class="st4" x1="959.5" y1="520.5" x2="1033.5" y2="563.5"/>
		<line class="st4" x1="959.5" y1="508.5" x2="1033.5" y2="551.5"/>
		<line class="st4" x1="959.5" y1="495.5" x2="1033.5" y2="538.5"/>
		<line class="st4" x1="959.5" y1="480.5" x2="1033.5" y2="523.5"/>
	</g>
	<g>
		<line class="st4" x1="959.5" y1="468" x2="1033.5" y2="511"/>
		<line class="st4" x1="959.5" y1="454" x2="1033.5" y2="497"/>
		<line class="st4" x1="959.5" y1="438" x2="1033.5" y2="481"/>
		<line class="st4" x1="959.5" y1="423" x2="1033.5" y2="466"/>
		<line class="st4" x1="959.5" y1="411" x2="1033.5" y2="454"/>
		<line class="st4" x1="959.5" y1="398" x2="1033.5" y2="441"/>
		<line class="st4" x1="959.5" y1="383" x2="1033.5" y2="426"/>
	</g>
	<g>
		<line class="st4" x1="959.5" y1="372" x2="1033.5" y2="415"/>
		<line class="st4" x1="959.5" y1="358" x2="1033.5" y2="401"/>
		<line class="st4" x1="959.5" y1="342" x2="1033.5" y2="385"/>
		<line class="st4" x1="959.5" y1="327" x2="1033.5" y2="370"/>
		<line class="st4" x1="959.5" y1="315" x2="1033.5" y2="358"/>
		<line class="st4" x1="959.5" y1="302" x2="1033.5" y2="345"/>
		<line class="st4" x1="959.5" y1="287" x2="1033.5" y2="330"/>
	</g>
	<g>
		<line class="st4" x1="959.5" y1="275" x2="1033.5" y2="318"/>
		<line class="st4" x1="959.5" y1="261" x2="1033.5" y2="304"/>
		<line class="st4" x1="959.5" y1="245" x2="1033.5" y2="288"/>
		<line class="st4" x1="959.5" y1="230" x2="1033.5" y2="273"/>
		<line class="st4" x1="959.5" y1="218" x2="1033.5" y2="261"/>
		<line class="st4" x1="959.5" y1="205" x2="1033.5" y2="248"/>
		<line class="st4" x1="959.5" y1="190" x2="1033.5" y2="233"/>
	</g>
</g>
<g>
	<line class="st4" x1="959.5" y1="184.3" x2="1033.5" y2="227.3"/>
	<line class="st4" x1="959.5" y1="170.3" x2="1033.5" y2="213.3"/>
	<line class="st4" x1="959.5" y1="154.3" x2="1033.5" y2="197.3"/>
	<line class="st4" x1="959.5" y1="139.3" x2="1033.5" y2="182.3"/>
	<line class="st4" x1="959.5" y1="127.3" x2="1033.5" y2="170.3"/>
	<line class="st4" x1="959.5" y1="114.3" x2="1033.5" y2="157.3"/>
	<line class="st4" x1="959.5" y1="99.3" x2="1033.5" y2="142.3"/>
</g>
</svg>
