<?xml version="1.0" encoding="utf-8"?>
<!-- Generator: Adobe Illustrator 27.3.1, SVG Export Plug-In . SVG Version: 6.00 Build 0)  -->
<svg version="1.1" id="Layer_1" xmlns="http://www.w3.org/2000/svg" xmlns:xlink="http://www.w3.org/1999/xlink" x="0px" y="0px"
	 viewBox="0 0 1920 1080" style="enable-background:new 0 0 1920 1080;" xml:space="preserve">
<style type="text/css">
	.st0{opacity:0.86;fill:#A0D468;}
	.st1{fill:#8AB659;}
	.st2{fill:none;stroke:#000000;stroke-width:68;stroke-linecap:round;stroke-miterlimit:10;}
	.st3{fill:none;stroke:#000000;stroke-width:63;stroke-linecap:round;stroke-miterlimit:10;}
	.st4{fill:none;stroke:#000000;stroke-width:65;stroke-linecap:round;stroke-miterlimit:10;}
</style>
<path class="st0" d="M1346.7,514.6c0,211.5-168.7,383-376.9,383S593,726.2,593,514.6c0-54.5,11.2-106.3,31.4-153.2
	c16.8-39,59.4-119.5,151.9-175.5c88.5-53.5,173.3-54.5,193.6-54.3C1124.1,133.1,1346.7,223.9,1346.7,514.6z"/>
<path class="st1" d="M937.2,907.3c28.8-14,51-26.5,66.5-35.8c11.5-6.9,18.5-11.4,25.4-16.3c16.3-11.6,26.9-21.5,37.8-31.7
	c51.7-48,46.4-41.8,53.1-49c23.4-25.1,37.9-47.3,47-61.3c22-33.9,34.3-62.2,37.8-70.5c7.3-17.1,17.7-42,24.5-76.6
	c8.4-42.6,6.7-76,6.1-84.8c-2.1-33.7-9.1-57.5-18.4-88.9c-10-33.8-17.8-48.7-21.4-55.1c-8.2-14.7-13-18.9-29.6-40.9
	c-23.2-30.6-21.3-32-52.3-74.6c-30.7-42.2-38.1-48.4-44.7-53c-30.6-21.5-59.6-19.7-59.2-23.5c0.5-5.9,69-17.8,138.7,6.9
	c50.9,18.1,81.6,48.3,108.5,74.8c81.7,80.5,107.3,171.4,112.8,192c4,15.2,19.7,74.5,11.1,149.6c-2.5,21.8-6.4,53.8-20.1,91.4
	c-3.3,9.2-12.7,33.3-30,61.7c-15.7,25.8-44.7,66.1-94.6,104.4"/>
<path class="st2" d="M702.8,814c10.5,8.9,25,20.5,42.9,33.2c13.8,9.7,26.1,18.5,43.4,27.9c21.3,11.6,38.1,17.8,55.1,24
	c17.6,6.5,39.3,14.2,68.9,19.9c11.8,2.3,29,5.5,52.1,6.1c26.5,0.8,46.5-2.3,61.3-4.6c29.8-4.7,52.3-11.8,62.8-15.3
	c24.4-8.3,41.7-16.9,56.7-24.5c18.8-9.5,36-18.2,56.7-33.7c17.6-13.1,30-25.4,39.8-35.2c12.1-12.1,22.5-24.3,30.6-33.7
	c5.7-6.6,9.9-11.5,15.3-18.3c4.8-6,15.8-20,26-36.8c12.5-20.5,19.1-37.3,26-55.1c5.6-14.3,12.8-32.9,18.4-58.2
	c3-13.8,4.6-27.6,7.7-55.1c3.2-29,4.9-43.5,4.6-58.2c-0.4-21.9-3.3-38.2-6.1-53.6c-1.9-10.6-6.7-34.6-16.9-64.3
	c-7.9-23.1-15.6-39.4-23-55.1c-10-21.4-15.1-32.1-24.5-46c-11-16.2-21.3-27-32.2-38.3c-14.9-15.6-27.4-26.1-38.3-35.2
	c-14.2-11.9-26.3-22.1-44.4-33.7c-7.7-4.9-26.3-16.5-52.1-27.6c-23.4-10.1-42.1-15.3-53.6-18.4c-20.2-5.5-36-8.2-50.6-10.7
	c-17.2-2.9-29.4-5-46-6.1c-27.2-1.8-49.1,0.1-61.3,1.5c-11.6,1.4-34.8,4.8-62.8,13.8c-20,6.4-33.9,13-55.1,23
	c-12.6,5.9-26.6,12.5-44.4,23c-24.5,14.3-73.6,51.8-84.3,64.3c-14.7,17.2-49.6,65.4-58.2,79.7c-6.8,11.3-31.3,72.4-35.2,84.3
	c-1.5,4.5-7.2,22-10.7,46c-2.7,18.4-2.9,32.3-3.1,46c0,3.6-0.1,16.3,1.5,42.9c2.1,33.5,3,50.3,6.1,64.3
	c4.8,21.4,11.2,37.4,19.9,58.2c7,16.7,13.7,30.4,18.9,40.3"/>
<path class="st3" d="M771.7,182.5c-1.2,17.7-1.8,32.9-2,44.9c-0.3,14-0.3,9.2,0,35.3c0.2,15.9,0.3,23.9,1,33.1c0.7,8.5,1,8.6,4,32.1
	c2.7,21.2,3.1,26.6,4.1,32c0.2,1.1,0.5,2.5,0.9,4.4c2.6,11.6,6,19.9,8.1,25.2c11.9,29.5,11.3,28.3,12,29.7c9,18.1,19.2,30,28.1,40.4
	c11.2,13,18.6,21.5,30.9,28.8c5.8,3.4,14.2,7.5,16.6,8.6c4.3,2.1,13.2,6.4,21.8,9.5c8.8,3.2,18.1,5.1,34.1,7.5
	c17,2.5,41.1,5.8,72.3,2.1c15.4-1.8,31.6-4,51.2-12.8c18.8-8.4,31.6-18.9,38.2-24.8c14.9-13.4,23.1-26.4,25.1-29.7
	c7.8-12.7,11.2-23.2,16.1-38.5c4.9-15.4,7.2-27.3,10-41.7c3-15.3,4.9-25.1,6-38.5c0.1-1.8,0.2-6.1,0.6-13.2c0.2-4.3,0.4-9,1-19.1
	c0.8-14.2,0.8-12.5,1.1-18.2c0.8-14.4,1.1-25.6,1.2-31.8c0.1-5.5,0.1-5.7,0.2-14c0.2-18.8,0.6-28.9,0.7-32.8
	c0.1-10.9-1.5-26.9-9.7-48.7"/>
<path class="st4" d="M920.9,709.2c28.9,0.3,57.9,0.7,86.8,1"/>
</svg>
